<?xml version="1.0" encoding="utf-8"?>
<!-- Generator: Adobe Illustrator 25.0.1, SVG Export Plug-In . SVG Version: 6.00 Build 0)  -->
<svg version="1.1" id="Layer_1" xmlns="http://www.w3.org/2000/svg" xmlns:xlink="http://www.w3.org/1999/xlink" x="0px" y="0px"
	 viewBox="0 0 860 514.42" style="enable-background:new 0 0 860 514.42;" xml:space="preserve">
<style type="text/css">
	.st0{clip-path:url(#SVGID_2_);fill:#FFFFFF;}
	.st1{clip-path:url(#SVGID_2_);fill:#E77B35;}
	.st2{clip-path:url(#SVGID_2_);stroke:#FFFFFF;stroke-width:2;stroke-miterlimit:10;}
	.st3{clip-path:url(#SVGID_2_);}
</style>
<g>
	<defs>
		<rect id="SVGID_1_" x="-70" y="-69.9" width="1000" height="572"/>
	</defs>
	<clipPath id="SVGID_2_">
		<use xlink:href="#SVGID_1_"  style="overflow:visible;"/>
	</clipPath>
	<path class="st0" d="M-139.99-54.75c18.53-0.26,37.08,0,55.62-0.12c1.55,0.09,3.87-0.38,4.56,1.5c0.21,5.01,0.19,10.05,0.01,15.07
		c-0.02,1.28-1.46,1.77-2.53,1.64c-5.99,0.2-11.99-0.21-17.97,0.15c-0.33,0.31-0.98,0.93-1.31,1.24
		c-0.32,17.28,0.05,34.59-0.17,51.88c0.07,1.35-1.3,2.19-2.53,2.02c-4.42,0.14-8.86,0.16-13.29-0.02c-1.65,0.18-2.41-1.55-2.2-2.94
		c-0.13-16.89,0.14-33.78-0.12-50.66c-0.01-1.97-2.2-1.53-3.52-1.65c-5.66-0.11-11.32,0.23-16.96-0.12
		c-2.23-0.82-1.27-3.75-1.5-5.54c0.36-3.92-0.72-8.15,0.63-11.85C-140.95-54.3-140.31-54.6-139.99-54.75"/>
	<path class="st1" d="M62.97,548.84c52.09,0.1,104.19,0.06,156.29,0.02c-25.98,12.32-52.12,24.3-78.15,36.52
		C115.08,573.16,88.92,561.21,62.97,548.84"/>
	<polygon class="st2" points="860,225 430,450 0,225 430,0 	"/>
	<polygon class="st0" points="832.5,225 430,435.61 27.5,225 430,14.39 	"/>
	<polygon class="st1" points="810,225 430,423.84 50,225 430,26.16 	"/>
	<polygon class="st0" points="430,398 673.5,275 186.5,275 	"/>
	<polygon class="st1" points="430,388.94 505,351.06 355,351.06 	"/>
	<path class="st3" d="M365.94,299.78l-0.46,1.82l-0.46,1.37h-0.11v0.29h-0.11v0.23h-0.17v0.29h-0.11V304l-0.46,0.86l-0.17,0.97
		l-0.17,0.11l-0.23,0.57l-0.34,0.4l-0.34,0.97l-0.23,1.03l-0.68,1.6l-0.4,0.86l-0.23,0.91l-0.63,1.6l-0.23,0.97l-0.06,1.03
		l0.11,1.03l0.23,0.63l0.34,0.06l0.11,0.29h0.68l1.65-0.68l1.42-1.25l0.4-0.17l1.25-1.37l0.57-0.63l0.51-0.8l0.97-1.2l0.28-0.23
		l0.11-0.4l0.29-0.11l0.11-0.4l0.29-0.11l0.11-0.4l0.51-0.51l0.06-0.34l0.97-1.37l0.34-0.8l0.57-0.86l0.34-0.23l0.85,0.06l0.8,0.4
		l0.8,1.08l0.06,0.46l-0.8,1.6l-0.51,0.68v0.23l-0.46,0.74l-0.17,0.12v0.28h-0.11l-0.11,0.4l-1.08,1.25l-0.06,0.34l-0.23,0.11
		l-0.23,0.4l-0.4,0.34v0.23l-0.51,0.51l-0.06,0.34l-0.23,0.11l-0.46,0.68l-1.37,1.31l-1.31,1.25l-1.48,1.25l-0.17,0.17l-0.34,0.06
		v0.11h-0.23v0.17h-0.28l-0.11,0.23l-0.34,0.06l-0.74,0.46l-0.86,0.34l-0.4,0.06l-0.57,0.29l-1.71,0.23l-0.17,0.11l-1.82-0.23
		l-0.86-0.23l-0.74-0.34l-1.31-1.37l-0.74-0.91l-0.06-0.4l-0.8-0.51l-0.4,0.11l-1.43,1.2l-1.31,1.2l-1.2,0.51l-0.17,0.17l-0.91,0.29
		l-1.31,0.11v0.11l-1.65,0.17l-0.91-0.12l-0.11-0.17l-0.68-0.11v-0.11h-0.23v-0.11h-0.29v-0.17h-0.23v-0.11l-0.8-0.4l-0.86-0.85
		l-0.06-0.29l-0.34-0.29l-0.17-0.74l-0.12-0.11l-0.11-0.8l-0.12-0.11l-0.23-1.71l-0.06-1.03l0.23-1.77l0.17-0.97v-0.85l0.4-1.71
		l0.4-1.14l0.4-1.6l0.63-1.71l0.63-1.6l0.34-1.37l0.51-0.85l0.17-0.63l0.34-0.34l0.34-0.86l0.4-0.57l0.8-1.59l0.4-0.29l0.17-0.46
		l0.34-0.29l0.68-1.14l1.25-1.25l0.23-0.11l0.4-0.51l0.34-0.06l0.11-0.29l0.4-0.06l0.23-0.34l0.34-0.06l0.17-0.17l0.51-0.11
		l0.11-0.23l0.29-0.06l0.11-0.23h0.23l0.29-0.29l1.71-0.4l0.85-0.11l1.82,0.23l0.8,0.17v0.11l0.63,0.11l1.42,1.14l0.63,0.68
		l0.23,0.4l0.06,0.34l0.29,0.17v0.23l1.14,0.68l0.34-0.17h0.46l1.42-0.68l3.31-1.48l0.17-0.11h0.46l0.63,0.57l0.23,0.34l-0.23,0.86
		l-0.46,0.91l-0.4,1.2l-0.74,1.65l-0.74,1.25L365.94,299.78z M342.69,315.51l0.06,0.23l0.34,0.17v0.11l0.74-0.11l0.29-0.17
		l-0.11-0.63l-0.51,0.06l-0.63,0.34H342.69z M344.4,317.17l0.17-0.06l0.06-0.29l0.34-0.29l0.06-0.17l-0.11-0.06l-0.46,0.46
		l-0.06,0.23V317.17z M344.51,315.63l0.46-0.06l0.06-0.17l-0.4-0.11l-0.11,0.17V315.63z M344.91,317.96l0.51,0.11l-0.11-0.34
		l-0.4,0.11V317.96z M345.82,304.51h0.34l0.06-0.23h-0.29L345.82,304.51z M354.71,297.45h-0.28v0.12h-0.23v0.11h-0.29l-0.34,0.57
		l-0.4,0.11l-1.2,1.37l-1.03,1.6l-1.03,1.48l-0.23,0.57h-0.17v0.29l-0.17,0.06l-0.11,0.68l-0.46,0.68l-0.23,0.63l-0.46,0.8
		l-0.46,1.65l-0.17,0.91l-0.57,1.25l-0.4,1.71l-0.17,1.77l0.06,1.14l0.34,0.68l0.63,0.68l0.74,0.28l1.03-0.06l1.2-0.4l0.11-0.23
		h0.29l0.17-0.28h0.23l0.68-0.74l0.17-0.06v-0.11l1.31-1.25l0.97-1.25l0.68-1.6l0.57-1.71l0.28-0.34l0.34-0.8v-0.23l0.23-0.34v-0.23
		l0.17-0.11l0.57-1.82l0.29-0.8l0.23-0.34l0.68-1.77l0.34-0.8l0.11-1.6l-0.11-0.23l-0.06-0.63l-0.28-0.29l-0.11-0.4l-0.28-0.4
		l-0.74-0.46l-0.91-0.23h-0.63l-0.85,0.29L354.71,297.45z M354.31,295.11v-0.23l-0.28-0.11l-0.06,0.23l0.17,0.11H354.31z
		 M355.22,315.4l0.46,0.11l0.46-0.51l-0.17-0.11l-0.46,0.06l-0.29,0.34V315.4z M355.85,318.76l-0.23,0.11l0.11,0.23l0.4-0.17
		l0.28-0.34l0.11-0.63l-0.4-0.11l-0.23,0.8L355.85,318.76z M356.25,313.46l0.06,0.46l0.23,0.06l0.17-0.11l0.17-0.4l-0.17-0.11
		l-0.34,0.06L356.25,313.46z M357.16,312.78l0.17,0.11l0.17-0.06l0.29-0.8h-0.23l-0.11,0.11l0.06,0.11l-0.34,0.4V312.78z
		 M357.16,317.56l0.46-0.23l0.06-0.17l-0.23-0.23l-0.29,0.46V317.56z M358.47,318.19l-0.11-0.46l-0.28-0.29h-0.11l-0.11,0.23
		l0.06,0.34l0.4,0.17H358.47z M357.96,309.07l0.51,0.4h0.74l0.34,0.23l0.57,0.11v-0.23l-0.57-0.23l-0.17-0.34l-0.17-0.11l-0.17,0.23
		l-0.17,0.06l-0.74-0.34l-0.11,0.11L357.96,309.07z M358.99,315.51l-0.06-0.63l-0.17,0.06l-0.11,0.4l0.17,0.17H358.99z
		 M358.99,314.6l0.46-0.11l0.06-0.4l-0.4,0.17l-0.11,0.23V314.6z M359.61,307.13v-0.51h-0.4l0.06,0.46l0.17,0.06H359.61z
		 M359.73,308.16h0.29l0.11-0.4h-0.23l-0.17,0.29V308.16z M360.24,299.5l0.11,0.06l0.17-0.11l0.4-0.68h-0.17l-0.51,0.57V299.5z
		 M360.75,304.17l0.11-0.23l-0.11-0.17l-0.11,0.29L360.75,304.17z M361.04,301.44v0.28h0.4l-0.28-0.63l-0.23-0.06l-0.11,0.23
		l0.17,0.11L361.04,301.44z M361.55,303.89l0.11,0.11h0.23l0.17-0.17v-0.23l-0.23-0.12l-0.23,0.29L361.55,303.89z M361.84,299.61
		v0.28l0.51,0.23l0.11-0.29l-0.17-0.4l-0.11-0.06l-0.06,0.11l-0.23,0.06L361.84,299.61z M362.86,302.35v0.23h0.23v-0.34
		L362.86,302.35z M363.2,300.13l0.4,0.29l0.4-0.11l-0.17-0.34l-0.57,0.11L363.2,300.13z"/>
	<path class="st3" d="M413.24,293.34l0.23,0.63l-0.57,1.83l-0.17,0.17l-0.06,0.4l-0.17,0.17l-0.63,1.6l-0.74,1.71l-0.23,0.29
		l-0.17,0.68l-0.46,0.8l-0.23,0.74l-0.17,0.17l-0.11,0.63h-0.17l-0.29,0.85l-0.17,0.17l-0.29,1.31l-0.17,0.11v0.46l-0.68,1.6
		l-0.29,0.4l-0.34,1.31l-0.51,0.8l-0.17,0.57l-0.17,0.17l-0.34,1.2l-0.4,0.57l-0.34,1.14l-0.29,0.34l-0.46,1.54l-0.4,0.68
		l-0.34,0.86v0.4l-0.29,0.63l0.06,0.29l0.23,0.23l0.46,0.17l1.59-0.8l1.48-1.03l1.37-1.2l1.31-1.31l1.14-0.85l0.91-0.91l0.63-0.91
		v-0.23l0.85-0.86l0.11-0.34l0.34-0.34l0.46-0.8l0.63-0.57l0.34-0.74l0.57-0.74l0.4-0.8l0.34-0.4l0.85-0.23l0.4,0.06l0.74,0.57
		l0.46,0.63l0.23,0.85l-0.28,0.68l-0.51,0.8l-0.34,0.34l-0.74,1.25l-0.06,0.34h-0.17l-0.17,0.46l-0.34,0.23l-0.51,0.8l-0.63,0.63
		v0.17l-1.2,1.42l-1.31,1.25l-0.4,0.23l-1.25,1.37l-1.42,1.25l-0.11,0.06l-0.06,0.23l-0.4,0.11l-0.28,0.34l-1.54,0.91l-0.4,0.17
		l-0.28,0.34h-0.23v0.11h-0.29v0.11l-0.51,0.11l-0.29,0.34l-0.63,0.23l-0.11,0.23h-0.23v0.11l-0.97,0.46l-1.65,0.74v0.11h-0.23
		l-1.2,1.25l-0.74,1.71l-0.06,0.4l-0.46,0.8l-0.68,1.77l-0.46,0.74l-0.23,0.74l-0.46,0.57l-0.06,0.34l-0.34,0.34v0.23l-0.68,1.08
		l-0.85,1.14l-1.08,1.08l-0.34,0.06l-0.63,0.68l-0.91,0.74l-1.54,0.63l-1.82,0.51l-0.8,0.17l-1.82-0.29l-0.97-0.06l-0.68-0.34
		l-0.11-0.23h-0.23l-0.34-0.34l-0.34-0.17l-0.29-0.34l-0.34-0.11l-0.57-0.51l-0.06-0.34l-0.46-0.74l-0.17-0.74l-0.17-0.23
		l-0.11-0.91l0.11-1.82l0.51-1.37l0.34-0.23l0.11-0.4l0.46-0.74l1.2-1.14l0.4-0.11l0.46-0.57h0.29l0.11-0.29h0.23l0.17-0.29
		l0.4-0.06l0.29-0.23l0.8-0.29l0.17-0.17h0.28l0.11-0.28h0.23l0.28-0.29l0.4-0.06l0.34-0.34l0.8-0.23l1.71-0.68l1.37-0.68l0.74-0.46
		l0.63-0.57l0.51-0.8l0.06-0.63l-0.17-0.17l-0.4-0.11l-0.46,0.06l-0.51,0.46l-0.8,0.4l-0.46,0.11l-0.57,0.4l-0.8,0.23l-1.82-0.06
		l-0.97-0.17l-1.25-0.51l-0.4-0.11l-0.91-0.91l-0.11-0.4l-0.29-0.11v-0.29h-0.11v-0.23h-0.11v-0.29h-0.17v-0.23l-0.29-0.63l-0.23-2
		l-0.11-0.91l0.06-0.85l0.34-1.83l0.11-1.71l0.34-1.77l0.57-1.77l0.23-0.8l0.17-0.17l0.46-1.54l0.46-0.97l0.11-0.57h0.12l0.57-1.71
		l0.57-1.03l0.28-0.23v-0.29h0.11v-0.23h0.17l0.23-0.74l0.63-0.97v-0.23h0.17v-0.29h0.11v-0.23l1.08-1.42l1.2-1.37l1.37-1.2
		l1.54-1.03l0.85-0.4l0.28-0.29l0.4-0.06l0.86-0.34l1.25-0.23l1.94,0.17l0.34,0.06l0.11,0.17l1.42,0.46l0.34,0.34l0.34,0.17
		l0.51,0.51l0.11,0.34l0.23,0.11l0.63,0.86v0.28l1.2,0.68l0.97-0.11l0.46-0.17l0.11-0.17l1.31-0.63l0.34-0.11v-0.11h0.28l0.46-0.46
		l0.85-0.06l0.8-0.34h0.91L413.24,293.34z M391.7,327.82l-1.71,0.91l-0.74,0.34l-0.74,0.51l-0.46,0.17v0.11h-0.23l-1.25,1.25
		l-0.11,0.34l-0.29,0.17l-0.23,0.74l0.17,0.97l0.28,0.29l0.23,0.06l0.34,0.28l0.4,0.11l0.86-0.17l0.91-0.46l0.29-0.29l0.34-0.06
		l0.28-0.57l1.14-1.42l0.34-0.34l0.23-0.68l0.46-0.74l0.23-0.97l-0.17-0.34l-0.46-0.23H391.7z M387.43,318.02l0.29-0.06l0.11-0.28
		l-0.06-0.23l-0.23-0.23l-0.12,0.17V318.02z M387.65,315.17l0.4,0.06l0.4-0.23l0.11-0.46h-0.63l-0.29,0.46V315.17z M388.34,308.45
		v0.29l0.46,0.11l0.17-0.11v-0.29l-0.23-0.11l-0.34,0.06L388.34,308.45z M389.25,310.78l-0.17-0.11h-0.51l-0.06,0.17l0.29,0.23
		l0.46-0.17V310.78z M389.25,314.66l-0.06-0.46l-0.34-0.34v0.57l0.28,0.23H389.25z M389.59,306.28v0.17l0.68,0.06l-0.17-0.34
		l-0.23-0.06l-0.23,0.11L389.59,306.28z M389.88,319.05l0.4,0.06l0.17-0.11l0.17-0.46h-0.11l-0.23-0.29h-0.17l-0.17,0.68
		L389.88,319.05z M391.13,303.54l-0.28-0.11l-0.06,0.23l0.17,0.11l0.17-0.11V303.54z M398.37,298.13l-0.68,0.57l-1.08,1.48
		l-0.86,1.2l-0.46,0.74l-0.34,0.34l-0.68,1.6l-0.74,1.65l-0.57,1.2l-0.57,1.65l-0.34,0.8l-0.29,1.71l-0.46,1.77l-0.06,1.88
		l0.11,0.85l0.23,0.46l0.63,0.4l0.12,0.17l1.99-0.06l0.68-0.28l1.43-1.03l0.28-0.34h0.23l1.25-1.31l0.06-0.34l0.57-0.57l0.51-0.85
		l0.34-1.03l0.8-1.54l0.74-1.65l0.63-1.6l0.51-1.77l0.68-1.54l0.57-1.71l0.06-0.91l-0.11-0.23v-0.4l-0.29-0.8l-0.29-0.4l-0.97-0.91
		l-0.91-0.11l-1.77,0.17l-0.85,0.68L398.37,298.13z M391.93,301.89l0.34-0.11v-0.46l-0.29-0.4l-0.17-0.06l0.12,0.91V301.89z
		 M393.07,297.62h0.29l0.28-0.29l-0.23-0.11l-0.23,0.06l-0.12,0.17V297.62z M395.29,323.43l-0.4-0.11l0.06,0.23h0.34V323.43z
		 M395.18,298.53h0.46l0.06-0.29h-0.29l-0.23,0.17V298.53z M396.32,324.86l0.4,0.11l-0.06-0.23l-0.23-0.17l-0.06,0.17L396.32,324.86
		z M397.86,321.61l-0.46-0.11l0.06,0.17l-0.23,0.06l-0.4-0.11v0.29l0.4,0.51l-0.06,0.17l0.29,0.34v0.51l0.29,0.63l0.57,0.11
		l0.23-0.11l-0.57-1.2l0.17-0.34l0.4,0.23l0.51-0.23l-0.12-0.23l0.23-0.91l-0.91-0.29l-0.28,0.51H397.86z M397.74,324.86l-0.06-0.46
		l-0.74-0.23l0.06,0.51l0.34,0.29l0.29-0.06L397.74,324.86z M397.12,325.49h0.23v-0.23h-0.23V325.49z M397.63,317.74l0.34,0.8
		l-0.17,0.17l0.06,0.34h0.4l0.06-0.91l-0.17-0.51l-0.46,0.06L397.63,317.74z M398.14,324.86l0.17,0.57l-0.06,0.17l0.51,0.28
		l-0.23,0.63h0.28l0.06-0.51l0.23-0.06l0.06-0.11l-0.17-0.68l0.06-0.29l-0.68-0.11L398.14,324.86z M398.26,320.36v0.23l0.17,0.11
		h0.34l0.11-0.51l-0.51,0.11L398.26,320.36z M399.17,318.48v0.28l-0.29,0.29l0.34,0.51l0.34,1.14l0.29-0.06l0.34-0.23l0.51-0.06
		l0.28-0.17v-0.23l-0.28-0.06l-0.34,0.23l-0.28,0.06l-0.17-0.4h0.11l0.06-0.23l0.46-0.4l0.06-0.23l-0.17-0.11l-0.63,0.34l-0.34-0.91
		l-0.4-0.34l-0.12,0.17L399.17,318.48z M399.28,323.55l0.23-0.06l0.06-0.17l0.17-0.06l0.06-0.23h-0.29l-0.17,0.11l-0.06,0.29V323.55
		z M399.68,315.46l0.63-0.17l0.4,0.17l0.51-0.46l0.12-0.34l-0.17-0.11l-0.68,0.11l-0.4-0.11l0.11,0.23l-0.46,0.57L399.68,315.46z
		 M400.08,316.82l0.23-0.29l0.63-0.06l0.23,0.4l0.17,0.11l0.46-0.74l0.23-0.06l0.17-0.23l-0.06-0.17h-0.63l-0.17,0.4h-0.34
		l-0.28-0.51h-0.12l-0.63,0.97l0.06,0.11L400.08,316.82z M400.59,318.42l0.17-0.11l0.17-0.46l0.17-0.11h0.34l0.06-0.11l-0.46-0.17
		l-0.51,0.11l-0.34,0.46l0.23,0.34L400.59,318.42z M401.22,319.16l-0.11-0.46l-0.29-0.17l-0.11,0.23l0.23,0.34l0.17,0.06H401.22z
		 M400.82,321.72l0.23,0.11h0.46l0.34-0.23l0.17-0.4l-0.8-0.34l-0.34,0.74L400.82,321.72z M402.53,316.48l0.4-0.23l0.51-0.97
		l-0.4-0.4l-0.51,0.74l-0.11,0.4l0.06,0.34L402.53,316.48z M402.76,314.26v-0.11l0.29-0.29v-0.11l-0.4-0.11l-0.11,0.17v0.29
		l0.11,0.17H402.76z M402.93,311.41l0.28,0.17l0.34-0.29v-0.23l-0.23-0.11l-0.23,0.06l-0.17,0.28V311.41z M403.27,307.02l0.23,0.11
		l0.28-0.11v-0.11l-0.17-0.11l-0.28,0.11L403.27,307.02z M403.56,308.33h0.11v0.46l0.11,0.11l0.23-0.11l-0.06-0.46l0.23-0.11
		l0.23,0.34h0.17v-0.23l-0.63-0.4l-0.4,0.29V308.33z M404.47,310.38l0.11,0.4h0.28l0.11-0.23l-0.17-0.34l-0.63-0.34v0.23
		L404.47,310.38z M405.38,305.48h-0.68l-0.11,0.51l0.63,0.17l0.29-0.06l0.11-0.74l0.4-0.34h-0.4l-0.11,0.4L405.38,305.48z
		 M404.7,300.98h0.51l0.4-0.17l0.12-0.63l-0.86,0.17l-0.11,0.11l-0.06,0.34V300.98z M404.98,304.06l0.23,0.17v-0.34l-0.23-0.06
		V304.06z M406.01,307.82l0.17,0.06l0.34-0.29v-0.23l-0.4-0.17l-0.17,0.51L406.01,307.82z M406.23,305.6l0.06,0.29l0.17,0.17
		l0.34-0.06l0.11-0.23l-0.06-0.23h-0.57L406.23,305.6z M406.75,304.06l-0.06-0.46l-0.29-0.06l0.06,0.46l0.17,0.06H406.75z
		 M407.03,299.04l-0.23,0.63l0.11,0.28l0.23-0.06l0.28-0.28l0.51-0.11l0.23-0.29v-0.29l-0.17-0.11l-0.8,0.28L407.03,299.04z
		 M408.86,301.61v-0.23l-0.29-0.29l-0.11,0.23l0.23,0.29H408.86z"/>
	<path class="st3" d="M441.17,299.78l-0.46,1.82l-0.46,1.37h-0.11v0.29h-0.11v0.23h-0.17v0.29h-0.11V304l-0.46,0.86l-0.17,0.97
		l-0.17,0.11l-0.23,0.57l-0.34,0.4l-0.34,0.97l-0.23,1.03l-0.68,1.6l-0.4,0.86l-0.23,0.91l-0.63,1.6l-0.23,0.97l-0.06,1.03
		l0.11,1.03l0.23,0.63l0.34,0.06l0.11,0.29h0.68l1.65-0.68l1.42-1.25l0.4-0.17l1.25-1.37l0.57-0.63l0.51-0.8l0.97-1.2l0.29-0.23
		l0.11-0.4l0.29-0.11l0.11-0.4l0.29-0.11l0.11-0.4l0.51-0.51l0.06-0.34l0.97-1.37l0.34-0.8l0.57-0.86l0.34-0.23l0.85,0.06l0.8,0.4
		l0.8,1.08l0.06,0.46l-0.8,1.6l-0.51,0.68v0.23l-0.46,0.74l-0.17,0.12v0.28h-0.11l-0.11,0.4l-1.08,1.25l-0.06,0.34l-0.23,0.11
		l-0.23,0.4l-0.4,0.34v0.23l-0.51,0.51l-0.06,0.34l-0.23,0.11l-0.46,0.68l-1.37,1.31l-1.31,1.25l-1.48,1.25l-0.17,0.17l-0.34,0.06
		v0.11h-0.23v0.17h-0.29l-0.11,0.23l-0.34,0.06l-0.74,0.46l-0.85,0.34l-0.4,0.06l-0.57,0.29l-1.71,0.23l-0.17,0.11l-1.82-0.23
		l-0.86-0.23l-0.74-0.34l-1.31-1.37l-0.74-0.91l-0.06-0.4l-0.8-0.51l-0.4,0.11l-1.43,1.2l-1.31,1.2l-1.2,0.51l-0.17,0.17l-0.91,0.29
		l-1.31,0.11v0.11l-1.65,0.17l-0.91-0.12l-0.11-0.17l-0.68-0.11v-0.11h-0.23v-0.11h-0.29v-0.17h-0.23v-0.11l-0.8-0.4l-0.86-0.85
		l-0.06-0.29l-0.34-0.29l-0.17-0.74l-0.11-0.11l-0.11-0.8l-0.11-0.11l-0.23-1.71l-0.06-1.03l0.23-1.77l0.17-0.97v-0.85l0.4-1.71
		l0.4-1.14l0.4-1.6l0.63-1.71l0.63-1.6l0.34-1.37l0.51-0.85l0.17-0.63l0.34-0.34l0.34-0.86l0.4-0.57l0.8-1.59l0.4-0.29l0.17-0.46
		l0.34-0.29l0.68-1.14l1.25-1.25l0.23-0.11l0.4-0.51l0.34-0.06l0.11-0.29l0.4-0.06l0.23-0.34l0.34-0.06l0.17-0.17l0.51-0.11
		l0.11-0.23l0.29-0.06l0.11-0.23h0.23l0.29-0.29l1.71-0.4l0.86-0.11l1.82,0.23l0.8,0.17v0.11l0.63,0.11l1.42,1.14l0.63,0.68
		l0.23,0.4l0.06,0.34l0.29,0.17v0.23l1.14,0.68l0.34-0.17h0.46l1.42-0.68l3.31-1.48l0.17-0.11h0.46l0.63,0.57l0.23,0.34l-0.23,0.86
		l-0.46,0.91l-0.4,1.2l-0.74,1.65l-0.74,1.25L441.17,299.78z M417.92,315.51l0.06,0.23l0.34,0.17v0.11l0.74-0.11l0.29-0.17
		l-0.12-0.63l-0.51,0.06l-0.63,0.34H417.92z M419.63,317.17l0.17-0.06l0.06-0.29l0.34-0.29l0.06-0.17l-0.11-0.06l-0.46,0.46
		l-0.06,0.23V317.17z M419.74,315.63l0.46-0.06l0.06-0.17l-0.4-0.11l-0.11,0.17V315.63z M420.14,317.96l0.51,0.11l-0.11-0.34
		l-0.4,0.11V317.96z M421.05,304.51h0.34l0.06-0.23h-0.29L421.05,304.51z M429.94,297.45h-0.28v0.12h-0.23v0.11h-0.29l-0.34,0.57
		l-0.4,0.11l-1.2,1.37l-1.02,1.6l-1.03,1.48l-0.23,0.57h-0.17v0.29l-0.17,0.06l-0.11,0.68l-0.46,0.68l-0.23,0.63l-0.46,0.8
		l-0.46,1.65l-0.17,0.91l-0.57,1.25l-0.4,1.71l-0.17,1.77l0.06,1.14l0.34,0.68l0.63,0.68l0.74,0.28l1.03-0.06l1.2-0.4l0.11-0.23
		h0.29l0.17-0.28h0.23l0.68-0.74l0.17-0.06v-0.11l1.31-1.25l0.97-1.25l0.68-1.6l0.57-1.71l0.28-0.34l0.34-0.8v-0.23l0.23-0.34v-0.23
		l0.17-0.11l0.57-1.82l0.28-0.8l0.23-0.34l0.68-1.77l0.34-0.8l0.11-1.6l-0.11-0.23l-0.06-0.63l-0.29-0.29l-0.11-0.4l-0.29-0.4
		l-0.74-0.46l-0.91-0.23h-0.63l-0.86,0.29L429.94,297.45z M429.54,295.11v-0.23l-0.28-0.11L429.2,295l0.17,0.11H429.54z
		 M430.46,315.4l0.46,0.11l0.46-0.51l-0.17-0.11l-0.46,0.06l-0.29,0.34V315.4z M431.08,318.76l-0.23,0.11l0.11,0.23l0.4-0.17
		l0.28-0.34l0.11-0.63l-0.4-0.11l-0.23,0.8L431.08,318.76z M431.48,313.46l0.06,0.46l0.23,0.06l0.17-0.11l0.17-0.4l-0.17-0.11
		l-0.34,0.06L431.48,313.46z M432.39,312.78l0.17,0.11l0.17-0.06l0.29-0.8h-0.23l-0.11,0.11l0.06,0.11l-0.34,0.4V312.78z
		 M432.39,317.56l0.46-0.23l0.06-0.17l-0.23-0.23l-0.29,0.46V317.56z M433.71,318.19l-0.12-0.46l-0.29-0.29h-0.11l-0.11,0.23
		l0.06,0.34l0.4,0.17H433.71z M433.19,309.07l0.51,0.4h0.74l0.34,0.23l0.57,0.11v-0.23l-0.57-0.23l-0.17-0.34l-0.17-0.11l-0.17,0.23
		l-0.17,0.06l-0.74-0.34l-0.11,0.11L433.19,309.07z M434.22,315.51l-0.06-0.63l-0.17,0.06l-0.11,0.4l0.17,0.17H434.22z
		 M434.22,314.6l0.46-0.11l0.06-0.4l-0.4,0.17l-0.11,0.23V314.6z M434.84,307.13v-0.51h-0.4l0.06,0.46l0.17,0.06H434.84z
		 M434.96,308.16h0.29l0.11-0.4h-0.23l-0.17,0.29V308.16z M435.47,299.5l0.11,0.06l0.17-0.11l0.4-0.68h-0.17l-0.51,0.57V299.5z
		 M435.98,304.17l0.11-0.23l-0.11-0.17l-0.11,0.29L435.98,304.17z M436.27,301.44v0.28h0.4l-0.29-0.63l-0.23-0.06l-0.11,0.23
		l0.17,0.11L436.27,301.44z M436.78,303.89l0.11,0.11h0.23l0.17-0.17v-0.23l-0.23-0.12l-0.23,0.29L436.78,303.89z M437.07,299.61
		v0.28l0.51,0.23l0.11-0.29l-0.17-0.4l-0.11-0.06l-0.06,0.11l-0.23,0.06L437.07,299.61z M438.09,302.35v0.23h0.23v-0.34
		L438.09,302.35z M438.44,300.13l0.4,0.29l0.4-0.11l-0.17-0.34l-0.57,0.11L438.44,300.13z"/>
	<path class="st3" d="M486.71,318.7l-1.25,1.03l-1.48,1.03l-1.25,0.68l-0.46,0.11l-0.4,0.29l-0.63,0.23l-0.97-0.06l-0.17,0.17
		l-1.82,0.06l-1.37-0.06l-0.11-0.17l-0.8-0.23l-0.85-0.51l-1.25-1.25l-0.34-1.82l-0.29-0.91l-0.11-0.85l0.11-1.25l0.17-0.11
		l0.17-1.82l0.34-0.86l0.11-0.91l0.57-1.71l0.46-0.68l0.11-0.46l0.29-0.28v-0.23h0.11l0.46-1.71l0.68-1.71l0.57-1.48l0.17-0.17
		l0.06-0.34h0.11l0.17-0.68l0.28-0.34l0.11-0.91l0.63-1.71l0.06-0.91l-0.4-0.85l-0.57-0.4l-1.82,0.11l-1.14,0.51l-0.11,0.29
		l-0.34,0.06l-1.54,1.03l-0.23,0.34l-0.4,0.17l-0.29,0.4l-0.34,0.11l-0.17,0.17l-0.06,0.28l-0.34,0.23l-0.06,0.29l-0.34,0.23
		l-0.57,1.6l-0.74,1.65l-0.11,0.4l-0.29,0.4v0.23l-0.34,0.74l-0.17,0.68l-0.29,0.29v0.4l-0.29,0.34v0.4l-0.46,0.8l-0.11,0.63
		l-0.68,1.65l-0.68,1.77l-0.68,1.71l-0.68,1.59l-0.23,0.34l-0.28,1.08l-0.51,1.25l-0.29,0.29l-0.23,0.8l-0.8,1.14l-1.71,0.23
		l-0.85,0.17l-1.88-0.17h-0.8l-0.4-0.17l-0.34-0.34l-0.23-1.14l0.17-0.11l0.06-0.4l0.74-1.6l0.68-1.65l0.17-0.63l0.29-0.29
		l0.46-0.86l0.34-1.65l0.29-0.34l0.74-1.71l0.63-1.71l0.74-1.65l0.29-0.97l0.4-0.68l0.57-1.65l0.63-1.6l0.17-0.46l0.17-0.11
		l0.06-0.4l0.29-0.23l0.51-1.65l0.17-0.97l-0.17-0.86l-0.57-0.51l-0.91-0.23l-0.8,0.06l-1.54,0.8l-0.8,0.34l-1.54,1.08l-1.14,0.8
		l-0.06,0.34l-0.51,0.63l-0.34,0.8l-0.4,0.51l-0.11,0.4l-0.28,0.4l-0.46,1.65l-0.68,1.65l-0.68,1.71l-0.4,0.74l-0.63,1.71l-0.57,1.6
		l-0.51,1.48l-0.34,0.29v0.23l-0.29,0.4l-0.46,1.6l-0.46,0.85l-0.17,0.69l-0.11,0.11l-0.17,0.91l-0.34,0.8l-0.4,0.63l-0.68,0.74
		l-0.74,0.57l-0.68,0.34l-1.82-0.11h-1.82l-0.63-0.17l-0.23-0.29l-0.11-0.4l0.23-1.42l-0.11-0.57l0.46-0.74l0.68-1.71l0.8-1.71
		l0.51-1.6l0.74-1.77l0.17-0.23l0.06-0.4l0.8-1.65l0.63-1.6l0.4-1.2l0.11-0.46l0.63-1.42l0.17-0.63l0.17-0.11l0.63-1.71l0.46-0.74
		l0.63-1.77l0.46-0.97l0.11-0.63l0.17-0.17l0.06-0.4l0.34-0.34l0.63-1.71l0.91-1.54l0.11-0.4l0.17-0.17l0.06-0.34l0.4-0.11
		l0.17-0.23l0.91,0.17l1.54,0.8l0.34,0.29h0.29v0.11l0.4,0.28l1.71,0.51l0.91-0.34l0.68-0.57l0.4-0.17l0.28-0.34l0.63-0.29
		l0.29-0.34h0.23v-0.11l0.34-0.06l1.65-0.68l0.86-0.34l1.77-0.11l1.77,0.06h0.23l0.91,0.57l0.11,0.17h0.23l0.29,0.34l0.4,0.17
		l0.11,0.4l0.34,0.29l0.34,0.85l0.51,0.68l0.23,0.11l0.74-0.23l1.31-1.08l1.14-0.63l1.08-0.63l0.91-0.23l0.29-0.23l1.77-0.57
		l1.65-0.17l1.82,0.29l1.03,0.34l1.31,1.2v0.23l0.51,0.8l0.34,1.54v0.97l-0.4,1.94l-0.17,1.14l-0.17,0.06l-0.11,0.68l-0.23,0.17
		l-0.17,0.74l-0.86,1.6l-0.4,1.42l-0.06,0.17h-0.11l-0.11,0.63l-0.29,0.29v0.29h-0.11l-0.51,1.65v0.11h-0.11v0.29h-0.17v0.23h-0.11
		v0.29h-0.11l-0.51,1.48l-0.63,1.88l-0.68,1.71l-0.57,1.71l-0.17,1.25l0.34,0.85l0.29,0.4l0.63,0.4h0.46l0.85-0.4l1.54-1.03
		l1.31-1.14l1.31-1.37l0.63-0.63l0.46-0.74l0.29-0.28l0.17-0.4l0.63-0.68l0.4-0.74l1.03-1.25v-0.29h0.11l0.06-0.23l0.34-0.28
		l0.51-1.14l0.51-0.68l0.68-0.57l0.51-0.17l0.8,0.17l0.68,0.63l0.23,0.34l0.06,0.57l0.11,0.17l-0.11,0.8l-0.63,1.2l-0.29,0.11
		l-0.06,0.34l-0.4,0.29l-0.57,1.08l-0.57,0.74l-0.06,0.4l-0.34,0.28l-1.03,1.42l-1.2,1.54l-1.25,1.42l-1.25,1.25l-0.06,0.11
		L486.71,318.7z M447.73,313.23l0.46,0.34l0.17-0.17l-0.51-0.4l-0.06,0.06L447.73,313.23z M448.64,312.21l0.23-0.34l-0.23-0.17
		l-0.29,0.29l0.11,0.17L448.64,312.21z M448.64,314.94l0.23,0.11v-0.34l-0.23-0.06V314.94z M449.26,311.69l0.4,0.17l0.29-0.29v-0.11
		l-0.23-0.11l-0.4,0.23L449.26,311.69z M452.11,306.05l0.29,0.11l0.11-0.29l-0.29-0.11l-0.06,0.17L452.11,306.05z M454.05,302.69
		l0.06-0.51l-0.17-0.17l-0.11,0.23v0.34L454.05,302.69z M454.68,299.21v0.23l-0.29,0.06l-0.06,0.17l0.34,0.17v-0.29l0.4-0.34v-0.17
		l-0.29,0.11L454.68,299.21z M455.99,298.42l0.51,0.8v-0.91l-0.46,0.06L455.99,298.42z M461.18,315.17v0.23l0.51,0.17l0.23-0.4
		l-0.23-0.11l-0.46,0.06L461.18,315.17z M462.32,312.49l0.29-0.06l0.11-0.17l-0.17-0.28h-0.11l-0.11,0.34V312.49z M463.34,309.13
		l-0.34-0.11l-0.06,0.23l0.23,0.12l0.17-0.12V309.13z M462.94,310.67h0.29v-0.23h-0.29V310.67z M464.25,306.56v0.23l0.11,0.11h0.28
		l0.11-0.11l-0.11-0.4h-0.28v0.11L464.25,306.56z M465.16,304.74l0.23-0.4v-0.23l-0.17-0.06l-0.29,0.17v0.4L465.16,304.74z
		 M465.39,306.05v-0.51h-0.34l0.06,0.4l0.17,0.11H465.39z M465.79,294.43l0.4-0.17l0.11-0.51l-0.4-0.11l-0.23,0.57L465.79,294.43z
		 M466.08,298.81l-0.4-0.11v0.23h0.4V298.81z M465.68,308.33h0.23l0.17-0.34h-0.28l-0.11,0.23V308.33z M468.01,300.24l-0.29-0.29
		l-0.57-0.17l-0.34,0.17v0.23l0.51,0.06v1.54l0.51,0.29l-0.06,0.23l-0.46,0.06l-0.23,0.34h-0.51l-0.06,0.23l-0.57,0.28l-0.06,0.4
		l0.29-0.06l0.63,0.17l0.23-0.34l0.68-0.23l0.29,0.06l0.28-0.51l-0.06-0.4l0.63-0.68l-0.06-0.91l-0.17-0.63l-0.51,0.17H468.01z
		 M465.91,304.63l0.06,0.29l0.46,0.46v0.29l0.28,0.23l0.11-0.11v-0.23l-0.23-0.4l-0.06-0.57l-0.11-0.11l-0.46,0.11L465.91,304.63z
		 M468.01,295.45l-0.29,0.34l-0.4,0.17l-0.17-0.4l-0.23,0.06l-0.51,0.51l-0.11,0.46l0.11,0.23l0.51,0.34l0.06,0.51l-0.29,0.46
		l0.4-0.17l0.23-0.34l-0.17-0.8l0.23-0.11l0.23,0.06l0.17,0.4l0.23,0.23v-0.11l0.23-0.17l0.17,0.34l-0.34,0.23l-0.06,0.23l0.4,0.11
		l0.11,0.23l0.06,0.97l0.29,0.34l0.68-0.51h0.4l-0.06-0.23l-0.4-0.46v-0.46l-0.23-0.29l0.06-0.17l0.23-0.06l0.11-0.4l-0.63-0.63
		l-0.11-0.46l0.11-0.23l-0.85-0.23H468.01z M466.3,300.98v0.23l0.4,0.17l0.29-0.17v-0.23l-0.46-0.11L466.3,300.98z M467.22,294.82
		h0.28l0.17-0.11l0.06-0.29l-0.4-0.11l-0.11,0.34V294.82z M468.53,295.85v1.03h-0.23l-0.23-0.51l0.17-0.46l0.17-0.06H468.53z
		 M469.04,300.07l-0.06-0.23l-0.23-0.06l-0.23,0.17l0.4,0.11H469.04z M469.67,296.48l0.4-0.11v-0.11h-0.29L469.67,296.48z
		 M470.07,297.9l0.63,0.11l0.11-0.17v-0.46l-0.46,0.17l-0.23,0.23L470.07,297.9z M476.91,312.89l-0.4-0.17l-0.23,0.06l0.23,0.46
		l-0.11,0.17l0.23,0.63l-0.4,0.17l-0.11,0.34l0.23,0.11l0.34-0.17l0.34-0.46l-0.4-0.91h0.51l0.57-0.23l0.11-0.17l-0.23-0.11
		l-0.46,0.06L476.91,312.89z M476.5,315.85h0.29v-0.29h-0.29V315.85z M477.02,310.55h0.29v-0.29h-0.29V310.55z M477.82,314.83h0.23
		l0.17-0.29l-0.4-0.11V314.83z M479.47,307.59l-0.4,0.23l-0.11-0.68l-0.4-0.34l-0.34,0.29l0.06,0.51l0.46,0.63l-0.29,0.23l0.29,0.17
		l0.17-0.4l0.17-0.11l0.29,0.06l0.46,0.46h0.29l0.23-0.91l-0.17-0.68l-0.4-0.34l-0.23,0.34l-0.06,0.4V307.59z M478.73,309.76
		l0.4-0.17l0.11-0.34l-0.11-0.11l-0.4,0.06l-0.17,0.29l0.06,0.17L478.73,309.76z M479.07,305.54h0.23v-0.4h-0.23V305.54z
		 M479.36,306.17l0.11,0.23h0.23l0.17-0.17v-0.34l-0.46,0.17L479.36,306.17z M479.87,295.45l0.06,0.51l0.34,0.4l0.23-0.06l0.97,0.34
		l0.34-0.29l-0.11-0.06v-0.23h-0.29l-0.23-0.4l0.06-0.23l0.4-0.4l-0.11-0.23l-0.51,0.06l-0.68,0.46l-0.34,0.11H479.87z
		 M479.98,301.66h0.29v-0.29h-0.29V301.66z M479.98,303.09l0.46,0.11l0.23-0.28l-0.4-0.11l-0.29,0.17V303.09z M480.49,301.15h0.23
		v-0.4h-0.23V301.15z M481.81,300.58l-0.06-0.23l-0.34-0.34l-0.23-0.06l0.17,0.4l0.34,0.23H481.81z M481.92,298.3v-0.51h-0.4
		l0.06,0.46l0.17,0.06H481.92z M482.43,299.73v-0.51l-0.63-0.17l0.23,0.63l0.23,0.06H482.43z M482.43,302.92l0.17-0.28l-0.57-0.23
		l0.06,0.29l0.23,0.17L482.43,302.92z M482.2,301.66l0.57,0.17l0.17-0.06l0.11-0.63l-0.23-0.17l-0.11,0.17l-0.4,0.17l-0.11,0.17
		V301.66z M482.72,304.11l-0.06-0.51l-0.23-0.17l-0.06,0.4l0.23,0.29H482.72z M482.83,299.55v0.29l0.23,0.29l0.06,0.34l0.46,0.11
		l0.17-0.23l-0.34-0.28l0.23-0.34l-0.4-0.23H483L482.83,299.55z M483.86,295.68l0.4-0.57l-0.11-0.57l-0.68,0.28l-0.11-0.4h-0.23
		l0.11,0.74l0.57,0.46L483.86,295.68z"/>
	<path class="st3" d="M506.94,291.29l0.11-0.11h1.82l0.74,0.23l0.11,0.17l0.91,0.23l0.68,0.51l0.68,0.23l1.25,1.31l0.34,0.29
		l0.17,0.4l0.23,0.11v0.29l0.29,0.23l0.17,1.71l0.17,1.82l-0.11,0.91l-0.23,0.63l-0.29,1.54l-0.51,1.14l-0.29,0.29l-0.34,1.03
		l-0.29,0.11l-0.06,0.4l-0.91,1.37l-1.37,1.31l-1.48,1.03l-0.8,0.46l-0.29,0.06l-0.23,0.28h-0.29v0.11l-1.65,0.51l-0.97,0.23h-0.46
		l-0.4,0.17h-1.77l-3.65,0.11l-0.23,0.06l-0.68,0.63l-0.17,0.4l-0.17,1.77l0.06,1.71h0.11l0.11,0.4l1.03,1.31l0.85,0.63l0.57,0.29
		l1.94,0.34l1.88-0.06l0.8-0.17l1.77-0.68l1.71-0.74l1.25-0.97h0.29l0.11-0.23h0.23l0.63-0.68l0.51-0.17l0.57-0.74l0.51-0.23
		l0.4-0.57l0.74-0.57l1.08-1.42l1.14-1.42l1.08-1.42l0.74-0.97l0.46-0.74l0.97-0.06l0.8,0.11l0.8,0.74l0.23,0.74l-0.34,1.14
		l-0.34,0.34l-0.17,0.46l-0.57,0.63l-1.03,1.48l-0.06,0.4l-0.63,0.63V313l-2.51,2.62l-2.34,2.34l-0.74,0.46l-0.11,0.17l-0.4,0.06
		l-0.34,0.34l-1.42,0.97l-0.23,0.06l-0.29,0.34h-0.28v0.11l-0.91,0.23l-0.11,0.17l-0.91,0.17l-1.71,0.51l-0.23,0.06l-0.11,0.17
		l-1.82,0.23h-0.11v0.11l-1.31,0.11l-0.4,0.17l-1.88-0.17h-0.86l-1.42-0.46l-0.91-0.11l-1.71-0.8l-0.69-0.4l-0.34-0.34l-0.46-0.17
		l-0.23-0.51l-0.29-0.11l-0.11-0.4l-0.74-1.03l-0.46-1.6l-0.23-1.82l-0.11-1.77l0.17-1.82l0.23-0.91l0.06-0.91l0.4-1.65l0.51-1.65
		l0.06-0.68l0.11-0.11l0.23-0.8l0.68-1.25l0.68-1.48l0.28-0.46l0.12-0.4l0.34-0.23l0.23-0.68h0.11l0.86-1.48l0.29-0.34l0.17-0.46
		l1.25-1.2l0.68-0.57l1.2-1.31l0.46-0.51l0.68-0.34l0.8-0.57l0.63-0.23l0.28-0.34l0.86-0.4l1.71-0.51l1.77-0.11H506.94z
		 M493.26,313.63l-0.34-0.11l-0.06,0.23l0.17,0.11l0.23-0.11V313.63z M493.49,315.57h0.29v-0.29h-0.29V315.57z M493.6,308.62h0.29
		v-0.51h-0.29V308.62z M493.78,311.81l0.34,0.11l-0.06-0.23l-0.17-0.11L493.78,311.81z M494.52,307.93v0.23l0.4,0.17l0.29-0.17
		v-0.23l-0.57-0.06L494.52,307.93z M494.91,311.81l0.06,0.45l0.74,0.23l0.11-0.68l-0.11-0.11l-0.34,0.17l-0.34-0.06H494.91z
		 M496.34,305.65v0.23l0.11,0.06l0.17-0.34l-0.17-0.11v0.11L496.34,305.65z M496.97,303.32l0.68-0.85l0.11-0.34l-0.4-0.11
		l-0.46,0.06l-0.17,0.91l0.11,0.29L496.97,303.32z M497.08,304.23l0.29,0.11l0.11-0.28l-0.23-0.11l-0.11,0.17L497.08,304.23z
		 M507.28,296.99l-0.97-0.06l-1.31,0.46l-0.34,0.06l-1.25,1.08h-0.23l-1.2,1.42l-0.97,1.54l-0.85,1.54l-0.06,0.29h-0.17v0.23h-0.11
		l-0.06,0.4l-0.68,1.42l-0.06,0.4l0.4,0.51l0.34,0.17h2.11l0.68-0.06l0.34-0.28l0.46-0.11l1.2-0.68l0.11-0.17l0.34-0.06l1.2-1.37
		l0.63-1.08l0.74-1.65l0.68-1.82l0.11-1.25l-0.63-0.68L507.28,296.99z M499.19,299.55l0.57-0.17l0.17,0.06v-0.4l-0.46,0.06
		l-0.29,0.34V299.55z M501.13,298.42l0.11-0.23l-0.11-0.29h-0.17l-0.11,0.17l0.11,0.29L501.13,298.42z M507.8,294.03l0.4,0.11
		l0.17-0.29l-0.46-0.06L507.8,294.03z M509.39,296.19v-0.29l-0.11-0.17l-0.29-0.06l0.06,0.46l0.23,0.06H509.39z M510.53,301.38
		l-0.11-0.34l-0.29-0.06l0.06,0.23l0.23,0.17H510.53z M510.25,299.84h0.28v-0.51h-0.28V299.84z M510.42,293.86l0.17,0.11l0.23-0.06
		l0.11-0.17l-0.23-0.11l-0.29,0.11V293.86z M511.56,298.64l-0.34-0.11l-0.06,0.23l0.23,0.11l0.17-0.11V298.64z M511.84,298.02
		l0.46-0.06l0.46-0.34l-0.46-0.17l-0.74-0.06v0.28l0.23,0.23L511.84,298.02z"/>
	<path class="st0" d="M390.86,79.76c7.43-9.85,15.04-19.58,22.53-29.39c6.81,8.24,13.03,16.95,20.27,24.82
		c4.23,4.74,7.88,10.84,7.4,17.41c-0.68,4.87-5.63,7.42-9.88,8.69c-11.63,3.23-23.9,5.29-34.32,11.73
		c-4.18,2.57-7.81,7.32-6.68,12.48c1.28,6.05,7.26,9.34,12.52,11.52c13.2,5.16,28.35,6.95,39.04,17.08
		c-9.84,9.97-23.45,14.53-35.76,20.58c-1.5,0.45-3.11,0.25-4.64,0.32c-62.75-0.12-125.5,0.11-188.25-0.12
		c37.04-21.09,74.03-42.29,111-63.51c9.04-6.15,20.58-5.13,30.62-8.46c8.21-9.4,15.61-19.55,23.55-29.2
		C382.45,75.75,386.64,77.78,390.86,79.76"/>
	<path class="st0" d="M438.4,72.32c5.6-2.92,11.17-5.91,16.77-8.82c15.23,11.49,30.52,22.91,45.76,34.37
		c3.64,2.78,7.24,5.68,11.36,7.73c28.24,14.45,56.45,28.94,84.67,43.42c16.62,8.69,33.51,16.88,49.96,25.89
		c-65.44,0.17-130.89-0.01-196.33,0.08c3.88-4.45,7.72-9.21,9.38-14.98c1.74-5.91,0.07-12.47-3.93-17.08
		c-5.61-6.48-13.97-9.58-21.94-12.05c-10.2-3.27-21.04-4.07-31.07-7.91c9.42-6.59,20.65-9.5,31.26-13.5
		c6.76-2.59,13.28-8.19,13.8-15.86C448.58,85.38,443.37,78.34,438.4,72.32"/>
	<rect x="70" y="175" class="st2" width="720" height="100"/>
	<path class="st0" d="M129.25,189.43c8.8-1.66,18.21,0.26,25.65,5.23c7.84,5.11,13.5,13.4,15.46,22.55
		c2.23,10.14-0.06,21.19-6.3,29.51c-5.84,7.94-15.07,13.36-24.91,14.29c-10.7,1.19-21.7-3.09-29.05-10.88
		c-7.87-8.12-11.54-20.03-9.58-31.17C102.79,204.45,114.76,192.05,129.25,189.43 M132.06,206.38c-8.15,1.56-14.37,9.26-14.7,17.47
		c-0.61,7.83,4.11,15.83,11.42,18.82c6.77,2.92,15.23,1.04,20.1-4.49c6.25-6.7,6.67-17.89,1.02-25.08
		C145.88,207.69,138.65,204.93,132.06,206.38"/>
	<path class="st0" d="M581.54,189.34c16.48-3.13,33.84,7.46,39.23,23.21c3.92,10.73,2.48,23.3-3.97,32.77
		c-5.83,8.84-15.78,14.88-26.36,15.73c-9.97,0.98-20.15-2.78-27.35-9.69c-8.67-8.1-12.85-20.59-10.84-32.27
		C554.51,204.34,566.78,191.75,581.54,189.34 M583.44,206.46c-6.69,1.45-12.11,7.05-13.74,13.64c-1.5,5.86-0.21,12.41,3.64,17.13
		c3.99,5.07,10.85,7.77,17.22,6.51c6.15-0.99,11.45-5.57,13.67-11.33c2.86-7,1.31-15.63-4.05-21.01
		C595.96,206.99,589.37,205.05,583.44,206.46"/>
	<path class="st0" d="M180.38,190.22c3.36-0.16,6.72-0.09,10.08-0.05c1.34-0.02,2.74,0.39,3.58,1.5
		c9.73,12.15,18.78,24.85,28.73,36.83c0.45-11.97,0.02-23.95,0.22-35.92c-0.04-1.18,0.52-2.42,1.89-2.34
		c4.29-0.2,8.6-0.11,12.9-0.05c1.32-0.09,2.43,1.02,2.19,2.38c0.08,21.18,0,42.37,0.04,63.55c-0.14,1.26,0.33,3.05-1.22,3.58
		c-3.82,0.38-7.69,0.26-11.52,0.1c-1.75,0.06-2.85-1.48-3.85-2.67c-8.37-10.89-16.79-21.73-25.17-32.63c-0.79-1-1.65-1.92-2.52-2.81
		c-0.38,11.44-0.07,22.91-0.15,34.36c-0.12,1.31,0.28,3.16-1.35,3.67c-4.74,0.29-9.54,0.31-14.28,0c-1.34,0-1.6-1.65-1.53-2.66
		c0.01-21.49-0.03-42.96,0.02-64.45C178.23,191.41,179.12,190.2,180.38,190.22"/>
	<path class="st0" d="M269.49,190.25c17.57-0.25,35.16,0,52.74-0.11c1.47,0.09,3.67-0.36,4.32,1.42c0.2,4.75,0.18,9.53,0.01,14.29
		c-0.02,1.21-1.38,1.68-2.4,1.56c-5.68,0.19-11.37-0.2-17.04,0.14c-0.31,0.29-0.93,0.88-1.24,1.18c-0.3,16.39,0.05,32.8-0.16,49.2
		c0.07,1.28-1.23,2.08-2.4,1.92c-4.19,0.13-8.4,0.15-12.6-0.02c-1.56,0.17-2.29-1.47-2.09-2.79c-0.12-16.02,0.13-32.03-0.11-48.04
		c-0.01-1.87-2.09-1.45-3.34-1.56c-5.37-0.1-10.73,0.22-16.08-0.11c-2.11-0.78-1.2-3.56-1.42-5.25c0.34-3.72-0.68-7.73,0.6-11.24
		C268.58,190.67,269.18,190.39,269.49,190.25"/>
	<path class="st0" d="M377.57,191.8c-0.12-1.21,1.42-1.64,2.36-1.62c4.11-0.07,8.23-0.09,12.35,0.01c1.33-0.09,2.47,0.98,2.26,2.37
		c0.09,21.16-0.01,42.32,0.04,63.48c0.04,1.49,0.11,3.84-1.99,3.75c-4.73,0.13-9.52,0.36-14.22-0.18c-0.2-0.27-0.58-0.8-0.77-1.06
		c-0.4-7.74,0.17-15.51-0.25-23.25c-0.28-1.9-2.67-1.19-3.95-1.38c-7.69,0.1-15.38-0.13-23.06,0.14c-0.9,8.27,0.32,16.68-0.64,24.91
		c-0.23,0.18-0.69,0.54-0.92,0.72c-4.76,0.35-9.57,0.33-14.33,0.02c-1.27-0.04-1.55-1.61-1.48-2.59c0-21.51-0.03-43.01,0.02-64.51
		c-0.23-1.48,1.01-2.69,2.51-2.44c4.36-0.02,8.74-0.19,13.1,0.1c1.81,0.55,1.33,2.73,1.45,4.15c0.05,7.13-0.17,14.27,0.08,21.39
		c0.14,0.31,0.44,0.93,0.59,1.24c7.25,0.49,14.55,0.04,21.81,0.22c1.58-0.21,3.74,0.57,4.8-1.03
		C377.77,208.12,377.2,199.95,377.57,191.8"/>
	<path class="st0" d="M406.92,190.23c15.38-0.19,30.78-0.02,46.16-0.09c1.43-0.18,3.51,0.38,3.35,2.19
		c0.07,4.48,0.15,8.96-0.06,13.44c-0.07,1.19-1.34,1.78-2.4,1.64c-9.48,0.07-18.95,0-28.43,0.01c-1.18,0.09-3.05-0.24-3.31,1.34
		c-0.05,2.74-0.68,5.78,0.42,8.36c8.6,1.12,17.51-0.02,26.21,0.55c0.27,0.15,0.83,0.45,1.11,0.6c0.72,4.02,0.18,8.17,0.33,12.25
		c0.16,1.24-0.22,3.25-1.9,3.06c-8.16,0.25-16.33-0.08-24.48,0.13c-2.31,0-1.76,2.84-1.86,4.36c0.17,1.46-0.54,4.3,1.57,4.52
		c10.43,0.32,20.88-0.16,31.3,0.22c2.94,1.45,0.98,5.85,1.54,8.53c-0.54,2.65,1.33,6.71-1.4,8.38c-15.2,0.4-30.43,0.04-45.65,0.18
		c-1.57-0.11-4.35,0.34-4.38-1.95c-0.12-21.49-0.01-42.99-0.06-64.49C404.9,192.12,405.11,190.14,406.92,190.23"/>
	<path class="st0" d="M489.02,193.39c-0.19-1.36,0.3-3.19,1.96-3.18c10.44-0.15,20.89-0.06,31.34-0.05
		c8.16-0.03,16.78,3.56,20.92,10.91c6.67,11.82,4.45,29.38-7.74,36.79c-2.6,1.09,0.02,3.39,0.83,4.9c3.58,5.68,8.33,10.74,11,16.93
		c-5.2,0.32-10.39,0.17-15.59,0.2c-1.77-0.05-3.94,0.1-5.05-1.58c-3.65-4.95-6.87-10.19-10.42-15.2c-1.85-3.05-5.99-1.91-8.92-1.85
		c-0.26,0.15-0.77,0.46-1.01,0.61c-0.72,5.67,0.22,11.44-0.48,17.12c-1.45,1.32-3.56,0.78-5.32,0.93c-3.44-0.09-6.9,0.2-10.33-0.25
		c-1.49-0.63-1.06-2.37-1.19-3.64C489.03,235.16,489.02,214.28,489.02,193.39 M506.48,207.03c-0.86,5.22-0.23,10.67-0.35,15.98
		c-0.23,2.24,2.31,2.15,3.86,2.06c4.74-0.21,9.56,0.42,14.25-0.42c8.21-1.93,8.23-16.08-0.07-17.88c-5.62-0.7-11.36-0.36-17.01-0.25
		L506.48,207.03z"/>
	<path class="st0" d="M646.96,192.52c1.3-3.73,6.02-1.99,8.98-2.38c3.3,0.46,8.7-1.57,10,2.77c7.45,19.17,14.89,38.36,22.33,57.53
		c1.15,3.03,2.63,5.98,3.04,9.24c-5.71,0.24-11.47,0.5-17.14-0.05c-3.02-2.16-2.51-6.78-4.91-9.44c-1.36-0.95-3.19-0.45-4.73-0.6
		c-6.78,0.18-13.6-0.25-20.36,0.2c-3.64,1.98-2.19,8.29-6.15,9.94c-5.62,0.08-11.47,0.83-16.96-0.52
		C629.54,236.93,638.34,214.75,646.96,192.52 M656.25,213.79c-2.31,5.42-4.09,11.06-6.19,16.56c-0.27,0.98-1.22,2.51,0.18,3.1
		c4.3,0.25,8.64,0.09,12.96,0.03c-0.41-3.55-2-6.78-3.12-10.12C658.87,220.14,658.02,216.76,656.25,213.79"/>
	<path class="st0" d="M699.03,190.24c9.67-0.21,19.36-0.03,29.04-0.09c7.49-0.02,15.18,2.15,20.87,7.19
		c7.76,6.73,11.09,17.33,11.05,27.37c0.14,9.52-2.62,19.54-9.41,26.47c-5.33,5.56-13.03,8.44-20.65,8.63
		c-9.79,0.13-19.57,0.1-29.36,0.08c-1.35,0.11-3.35-0.17-3.34-1.9c-0.16-21.5-0.01-42.99-0.08-64.48
		C697.12,192.19,697.26,190.24,699.03,190.24 M714.79,207.87c-0.74,1.75-0.38,3.71-0.46,5.57c0.15,9.46-0.2,18.95,0.17,28.41
		c0.3,0.19,0.91,0.57,1.21,0.76c5.04,0.09,10.16,0.4,15.17-0.29c5.82-0.98,10.18-6.09,11.27-11.74c1.34-6.77,0.58-14.92-4.91-19.73
		c-3.82-3.39-9.18-3.54-14-3.42C720.42,207.56,717.5,207.02,714.79,207.87"/>
</g>
<g>
	<path d="M238.06,489.87c-2.07,1.98-4.77,3.51-7.74,3.51c-4.32,0-6.84-3.15-6.84-7.65c0-3.06,1.26-7.02,3.87-10.8
		c5.58-8.01,11.79-11.61,15.66-11.61c2.34,0,4.05,1.08,4.86,2.7l1.17-1.71c1.08-1.53,1.71-1.8,3.15-0.45
		c0.72,0.81,1.26,2.16,1.26,3.78c0,2.25-0.9,4.32-4.14,9.9c-1.35,2.16-2.7,4.5-3.69,6.84c-1.44,3.15-1.98,5.76-1.08,5.94
		c1.44,0.36,4.68-3.06,8.01-10.35c1.44-3.69,2.34-7.74,2.34-11.07c0-5.13-1.71-9.09-4.77-10.44c-1.17-0.54-2.43-0.72-3.51-0.72
		c-5.76,0-13.59,4.23-19.89,13.05c-3.96,5.49-5.67,11.61-5.67,16.65c0,4.95,1.62,9,4.86,10.44c1.17,0.54,2.52,0.81,3.96,0.81
		c3.78,0,7.83-1.8,9.54-3.33c0.9-0.81,1.8-1.35,2.52-1.35c0.72,0,1.26,0.54,1.26,1.26c0,1.26-0.63,3.96-3.87,5.85
		c-2.25,1.35-4.95,1.8-7.47,1.8c-2.88,0-5.4-0.63-6.93-1.17c-7.74-2.97-10.53-9.36-10.62-16.02c-0.27-16.74,16.11-30.87,26.1-32.94
		c2.34-0.45,2.7-0.45,4.14-0.45c3.96,0,6.93,1.26,8.82,3.33c4.77,2.16,8.37,8.64,8.37,14.49c0,3.78-0.9,7.56-2.25,10.71
		c-3.42,8.64-9.99,12.96-14.94,12.96C241.93,493.83,238.69,491.49,238.06,489.87z M244,468.09c-1.89-0.09-6.57,4.23-10.35,10.26
		c-1.98,3.33-3.24,7.02-3.24,9.27c0,1.26,0.27,2.07,0.72,2.07c2.25,0.09,5.49-4.23,9.18-10.17
		C245.17,471.6,245.44,468.18,244,468.09z"/>
	<path d="M323.11,478.89c1.89,0.99,2.88,2.52,3.24,3.96c0.27,1.17-0.36,1.89-2.07,1.62c-1.35-0.18-2.61-0.27-4.14-0.27
		c-2.88,5.67-5.85,11.79-8.82,18.36c-0.63,1.44-2.16,1.89-3.15,0.27c-0.81-1.26-1.53-2.61-1.53-4.59c0-1.35,0.36-3.15,1.17-5.58
		c0.63-1.71,1.8-4.68,3.24-7.65c-5.58,0.72-11.34,1.8-15.39,1.8c-2.61,5.4-5.22,11.16-7.83,16.92c-0.63,1.53-2.25,1.98-3.33,0.45
		c-0.81-1.08-1.53-2.61-1.53-4.68c0-2.61,0.9-5.31,4.68-14.22c-1.8-0.99-2.52-2.07-2.88-2.7c-0.9-1.71-0.36-2.34,2.07-2.16
		c1.35,0.09,1.89,0.27,2.88,0.27c5.58-11.61,13.77-26.55,17.55-31.95c1.44-1.89,2.79-1.62,3.78,0.09c0.54,0.99,0.81,2.16,0.81,3.69
		c0,2.52-0.81,6.03-2.97,9.99l-9.63,17.55c5.67-0.81,10.26-1.98,15.21-2.43c5.76-11.43,13.5-25.2,17.1-29.97
		c1.62-2.07,2.97-1.8,3.87,0.18c0.45,0.99,0.81,2.07,0.81,3.42c0,2.52-0.9,5.94-3.51,10.44
		C327.07,471.78,325.09,475.29,323.11,478.89z"/>
	<path d="M412.56,489.06c0.54,0.72,0.63,3.78-0.54,6.03c-2.52,5.04-9.81,9.72-15.21,9.63c-6.03-0.09-9.36-3.42-9.36-8.19
		c0-1.71,0.36-3.69,1.35-5.76c1.53-3.42,4.23-7.83,6.48-11.34c0.9-1.35,3.69-5.49,3.42-5.58c-0.45-0.09-2.88,1.17-8.01,6.39
		c-6.93,6.84-11.25,15.66-15.03,23.58c-0.63,1.44-2.34,1.98-3.6,0.72c-0.99-0.99-1.8-2.52-1.8-4.86c0-1.53,0.45-3.96,1.53-6.66
		c1.26-3.33,4.23-8.1,6.66-11.97c2.52-3.96,4.68-7.11,4.14-7.38c-0.63-0.27-4.23,2.07-9.63,8.01c-4.86,5.31-9.09,13.41-12.6,21.78
		c-0.63,1.35-1.62,1.62-3.15,0.45c-1.35-1.08-2.07-2.7-2.07-4.77c0-1.44,0.27-2.97,0.81-4.77c0.72-2.25,2.43-6.12,4.59-10.26
		c-1.62,0.63-3.42,1.08-5.31,0.99c-2.25,8.91-8.91,19.26-17.91,19.26c-2.88,0-6.21-1.08-8.73-4.5c-1.62-2.25-2.43-4.95-2.43-7.74
		c0-4.05,1.44-8.55,3.87-12.69c3.42-6.03,9-11.7,14.76-11.7c3.24,0,4.77,0.63,6.75,3.24c3.06,3.42,4.41,5.22,4.41,10.8
		c4.77-0.72,9.72-7.02,13.86-13.41c0.99-1.44,2.52-1.53,3.51,0c0.72,1.26,1.17,2.7,1.17,4.05c0,0.81-0.09,1.53-0.27,2.52
		c4.05-3.96,8.73-7.2,11.7-7.2c2.97,0,4.77,3.33,4.77,7.02c3.87-3.33,8.91-6.48,11.52-6.39s3.96,2.61,3.96,5.49
		c0,1.44-0.27,3.15-0.99,4.77c-0.81,1.89-2.61,4.77-4.32,7.65c-1.26,1.8-2.43,3.78-3.69,6.48c-0.81,1.62-1.26,3.33-1.26,4.77
		c0,2.07,0.9,3.42,2.34,3.42c3.24,0,7.92-5.76,11.16-11.88C410.4,487.26,411.66,487.71,412.56,489.06z M335.17,499.77
		c2.16,0,6.12-3.33,9.45-9.36c1.35-2.43,2.34-4.86,2.97-7.2c-2.52-1.53-4.68-4.05-5.4-6.75c-1.98,1.98-3.6,4.14-5.22,6.93
		c-2.43,4.14-3.69,9-3.69,12.42C333.28,498.42,333.91,499.77,335.17,499.77z M350.11,475.11c0-1.35-0.72-1.89-1.35-1.89
		c-0.54,0-1.35,0.72-1.35,2.16c0,1.62,0.45,3.96,1.44,5.13C349.75,478.44,350.11,476.28,350.11,475.11z"/>
	<path d="M424.45,490.86c-2.16,0-4.32-0.63-6.39-1.98c-0.54,1.8-0.81,3.69-0.81,5.31c0,3.96,1.62,6.75,4.32,6.75
		c6.84,0,12.87-6.66,16.56-12.24c0.99-1.44,2.16-1.62,2.88,0.18c0.27,0.81,0.36,3.42-1.26,5.85c-3.78,5.49-10.98,9.72-18,9.81
		c-8.37,0.09-12.96-5.4-12.96-12.6c0-3.24,0.9-6.75,2.79-10.35c4.68-9.54,11.97-14.31,17.19-14.31c1.26,0,2.25,0.18,3.15,0.72
		c2.52,1.44,4.32,2.88,5.58,4.68c0.54,0.81,0.9,2.16,0.9,3.33C438.4,481.41,432.37,490.86,424.45,490.86z M419.32,485.46
		c0.72,0.45,1.35,0.63,1.98,0.63c2.16,0,5.04-2.7,6.84-5.13c2.61-3.51,4.5-7.74,3.51-8.55C430.3,471.33,423.64,476.82,419.32,485.46
		z"/>
	<path d="M456.04,494.82c4.05-10.62,12.69-26.91,20.16-38.52c-2.07-1.35-3.15-2.79-3.6-4.5c-0.27-1.26,0.72-1.8,2.07-1.8
		c4.95,0,9.72-0.54,14.04-1.26c3.06-0.45,5.58-0.9,7.92-0.9c4.14-0.09,6.39,1.53,7.56,4.68c0.36,0.99-0.27,1.8-1.98,1.8
		c-4.5,0-9.36,0.9-13.59,1.71c-1.35,0.27-2.25,0.45-3.6,0.63c-2.97,4.5-7.11,11.97-11.34,19.62c1.89-0.27,3.42-0.36,4.68-0.45
		c4.95-0.18,7.29,1.44,8.28,4.32c0.45,1.17,0.27,2.07-1.8,2.07c-4.41,0-10.71,1.08-15.57,2.34c-2.52,4.77-4.41,8.46-6.21,12.51
		c3.69-0.99,9.36-1.98,12.24-2.16c4.86-0.18,7.38,1.26,8.46,4.23c0.45,1.26,0.18,1.98-1.71,1.98c-4.77-0.09-14.4,2.25-19.35,3.6
		c-2.16,0.63-3.6,0.63-4.77-1.08c-0.63-0.9-1.26-2.34-2.25-3.96C454.96,498.51,455.14,497.34,456.04,494.82z"/>
	<path d="M512.82,493.38c-1.08,2.34-1.62,4.32-1.62,5.76c0,1.35,0.36,1.98,1.17,1.98c3.15,0,7.56-5.94,10.62-11.88
		c0.9-1.71,2.07-1.62,2.88,0c0.45,0.81,0.81,3.33-0.36,5.85c-2.43,4.86-8.01,9.54-13.23,9.54c-4.41,0-7.38-1.53-8.1-5.49
		c-2.79,2.88-6.3,5.22-10.26,5.22c-5.22,0-8.1-3.87-8.1-9.18c0-3.78,1.62-8.73,4.77-13.32c7.02-10.17,14.49-14.4,19.17-14.4
		c3.06,0,5.04,1.26,5.76,3.6c4.5-8.46,10.35-18.63,13.32-22.86c1.62-2.25,2.88-2.07,3.78,0.09c0.45,1.08,0.81,2.25,0.81,3.51
		c0,2.43-1.17,5.94-3.51,10.17C524.7,471.87,517.05,484.47,512.82,493.38z M511.2,472.95c-2.52-0.09-8.46,5.4-13.23,12.96
		c-2.7,4.23-4.14,8.73-4.14,11.7c0,1.62,0.36,2.79,1.35,2.79c2.88,0,7.2-5.04,11.25-12.87C511.29,478.26,512.91,473.04,511.2,472.95
		z"/>
	<path d="M529.65,504.45c-5.49,0-7.92-3.15-7.92-7.65c0-1.71,0.36-3.6,1.08-5.94c2.25-6.3,8.01-16.74,11.34-21.42
		c1.35-1.8,2.43-1.98,3.6-0.63c1.71,1.8,2.43,5.67,0.09,10.17c-1.71,3.87-5.85,10.62-7.38,14.22c-0.81,2.07-1.26,3.96-1.26,5.4
		c0,1.44,0.36,2.25,1.35,2.25c3.6,0,8.28-6.03,11.07-12.15c0.72-1.62,1.89-1.44,2.7,0.18c0.81,1.53,0.72,3.78-0.45,6.12
		C541.17,500.67,534.96,504.45,529.65,504.45z M541.17,458.55c2.52,0,4.95,3.24,4.95,5.85c0,2.43-1.35,4.5-3.6,4.5
		c-2.88,0-5.31-2.7-5.31-5.49C537.21,460.89,539.1,458.55,541.17,458.55z"/>
	<path d="M542.52,486.9c1.8-4.41,5.22-11.52,8.82-18c-2.79-0.36-4.41-1.35-5.13-2.43c-1.26-1.89-0.36-2.79,1.71-2.7
		c2.07,0.09,4.5,0,6.48-0.18c2.79-4.86,4.68-7.83,6.75-10.8c1.35-1.98,2.43-1.89,3.42-0.18c0.63,1.08,0.99,2.61,0.99,3.69
		c0,1.62-0.36,3.69-1.44,6.21c2.79,0.36,4.32,1.8,4.95,2.88c0.9,1.62,0.27,2.7-1.89,2.43c-1.62-0.18-3.96,0-5.94,0.27
		c-3.42,5.85-8.55,14.76-11.7,21.6c-1.08,2.43-1.62,4.77-1.62,6.75c0,2.7,0.9,4.59,2.43,4.59c3.51,0,8.19-5.67,11.34-12.42
		c0.99-2.16,3.06-2.34,3.69,0.09c0.45,1.89,0.09,3.24-0.9,5.31c-1.26,2.7-7.29,10.44-14.85,10.44c-4.77,0-8.91-3.87-8.91-10.08
		C540.72,492.39,541.26,489.87,542.52,486.9z"/>
	<path d="M567,504.45c-5.49,0-7.92-3.15-7.92-7.65c0-1.71,0.36-3.6,1.08-5.94c2.25-6.3,8.01-16.74,11.34-21.42
		c1.35-1.8,2.43-1.98,3.6-0.63c1.71,1.8,2.43,5.67,0.09,10.17c-1.71,3.87-5.85,10.62-7.38,14.22c-0.81,2.07-1.26,3.96-1.26,5.4
		c0,1.44,0.36,2.25,1.35,2.25c3.6,0,8.28-6.03,11.07-12.15c0.72-1.62,1.89-1.44,2.7,0.18c0.81,1.53,0.72,3.78-0.45,6.12
		C578.52,500.67,572.31,504.45,567,504.45z M578.52,458.55c2.52,0,4.95,3.24,4.95,5.85c0,2.43-1.35,4.5-3.6,4.5
		c-2.88,0-5.31-2.7-5.31-5.49C574.56,460.89,576.45,458.55,578.52,458.55z"/>
	<path d="M648.72,495c-2.43,5.13-9.09,9.63-14.76,9.63c-5.94,0-8.64-3.06-8.64-7.74c0-1.62,0.36-3.6,1.17-5.94
		c1.62-4.5,4.59-9.18,6.66-12.78c0.72-1.26,2.52-4.95,2.25-4.95c-0.81,0-4.77,2.34-9.81,7.92c-4.59,5.04-9.09,14.13-12.6,22.05
		c-0.54,1.17-1.8,2.07-3.24,0.45c-1.17-1.26-1.89-2.79-1.89-4.86c0-1.26,0.36-2.97,0.99-4.68c0.81-2.34,2.43-6.21,4.32-9.9
		c-1.89,0.9-2.97,0.9-5.22,0.9c-2.34,8.82-9,19.17-18,19.17c-2.88,0-6.21-1.08-8.64-4.41c-1.62-2.34-2.43-5.04-2.43-7.92
		c0-4.05,1.35-8.37,3.78-12.51c3.42-5.94,9.09-11.25,14.76-11.7c2.7-0.27,5.13,1.08,6.75,3.15c0.72,0.9,1.17,1.35,1.53,1.71
		c1.71,1.8,2.88,3.6,2.88,9.27c4.41-1.26,10.08-7.47,14.13-13.41c1.17-1.53,2.43-1.53,3.42-0.18c0.81,1.35,1.26,2.97,1.26,4.41
		c0,0.45,0,1.08-0.09,1.62c3.78-3.51,8.55-6.57,11.25-6.57c2.43,0,5.04,3.15,5.04,6.57c0,0.99-0.18,2.25-0.81,3.6
		c-0.9,1.71-2.16,4.14-3.6,6.39c-1.53,2.43-3.69,6.48-4.59,8.37c-0.9,1.98-1.35,3.78-1.35,5.22c0,1.8,0.63,2.97,1.98,2.97
		c2.79,0,7.83-6.03,11.16-11.88c0.72-1.26,2.07-1.26,2.79,0C649.71,490.05,650.16,492.12,648.72,495z M587.88,499.77
		c2.34-0.09,6.21-3.33,9.36-9.36c1.35-2.52,2.43-5.13,3.15-7.02c-2.43-1.53-4.77-4.5-5.58-7.02c-1.89,1.89-3.69,4.41-5.22,6.93
		c-2.34,4.05-3.78,9.09-3.78,12.51C585.81,498.42,586.62,499.77,587.88,499.77z M602.82,475.11c0-1.35-0.72-1.89-1.35-1.89
		c-0.54,0-1.35,0.72-1.35,2.16c0,1.62,0.45,3.96,1.44,5.13C602.46,478.44,602.82,476.28,602.82,475.11z"/>
</g>
</svg>
